<svg xmlns="http://www.w3.org/2000/svg" width="18" height="16" viewBox="0 0 18 16">
  <path fill="#333" d="M8.72727273,13.6426861 L4.18013595,15.9119341 C3.90642802,16.0508184 3.57673907,16.0238274 3.32983056,15.8423213 C3.08292205,15.6608152 2.96166808,15.3563112 3.01710275,15.0569709 L3.86514779,10.2787658 L0.25489888,6.90685515 C0.027756777,6.69590095 -0.0564899454,6.37450946 0.0383995468,6.08093528 C0.133289039,5.78736109 0.390393475,5.57395614 0.699112952,5.5325219 L5.72277028,4.82937466 L8.00845359,0.434704384 C8.1466413,0.167855037 8.42420328,0 8.72727273,0 C9.03034217,0 9.30790416,0.167855037 9.44609186,0.434704384 L11.7317752,4.82937466 L16.7554325,5.5325219 C17.064152,5.57395614 17.3212564,5.78736109 17.4161459,6.08093528 C17.5110354,6.37450946 17.4267887,6.69590095 17.1996466,6.90685515 L13.5893977,10.2787658 L14.4374427,15.0569709 C14.4928774,15.3563112 14.3716234,15.6608152 14.1247149,15.8423213 C13.8778064,16.0238274 13.5481174,16.0508184 13.2744095,15.9119341 L8.72727273,13.6426861 Z"/>
</svg>
